<svg xmlns="http://www.w3.org/2000/svg" width="1920" height="1080" viewBox="0 0 1920 1080">
<rect id="background" x="0" y="0" width="1920" height="1080" fill="#FAFAFA"/>
<g id="header">
<rect x="96" y="104" width="10" height="10" rx="2" fill="#96580A"/>
<text x="120" y="114" font-family="Geist" font-size="15" font-weight="500" fill="#6B6B6B" letter-spacing="1.44">06 · THE HOW, 1 OF 2</text>
<text x="93" y="196" font-family="Geist" font-size="66" font-weight="600" fill="#0A0A0A" letter-spacing="-2">SQRlane does the desk work itself.</text>
<text x="96" y="246" font-family="Geist" font-size="24" font-weight="400" fill="#6B6B6B">Every mail read once. Sixteen agents do the work. Nothing leaves without you.</text>
<rect x="96" y="282" width="1728" height="1" fill="#0A0A0A" fill-opacity="0.12"/>
</g>
<g id="dashboard">
<rect x="96" y="306" width="1000" height="584" rx="14" fill="#FFFFFF" stroke="#0A0A0A" stroke-opacity="0.14"/>
<g id="window-bar">
<rect x="96" y="306" width="1000" height="40" rx="14" fill="#F4F4F4"/>
<rect x="96" y="332" width="1000" height="14" fill="#F4F4F4"/>
<rect x="96" y="346" width="1000" height="1" fill="#0A0A0A" fill-opacity="0.09"/>
<circle cx="118" cy="326" r="5.5" fill="#DEDEDE"/>
<circle cx="136" cy="326" r="5.5" fill="#DEDEDE"/>
<circle cx="154" cy="326" r="5.5" fill="#DEDEDE"/>
<rect x="446.0" y="315" width="300" height="22" rx="6" fill="#FFFFFF" stroke="#0A0A0A" stroke-opacity="0.08"/>
<text x="596.0" y="331" font-family="Geist" font-size="12" font-weight="500" fill="#6B6B6B" text-anchor="middle">SQRlane · Desk</text>
</g>
<g id="sidebar">
<rect x="276" y="347" width="1" height="542" fill="#0A0A0A" fill-opacity="0.08"/>
<rect x="118" y="369" width="24" height="24" rx="6" fill="#0A0A0A"/>
<path d="M124 386h12 M124 381h8 M124 376h4.5" stroke="#FAFAFA" stroke-width="1.9" stroke-linecap="round" fill="none"/>
<text x="152" y="387" font-family="Geist" font-size="16" font-weight="600" fill="#0A0A0A">sqrlane</text>
<rect x="108" y="427" width="156" height="32" rx="8" fill="#F3F3F3"/>
<text x="122" y="448" font-family="Geist" font-size="13.5" font-weight="600" fill="#0A0A0A">Today</text>
<text x="122" y="484" font-family="Geist" font-size="13.5" font-weight="500" fill="#4A4A4A">Inbox</text>
<text x="122" y="520" font-family="Geist" font-size="13.5" font-weight="500" fill="#4A4A4A">Approvals</text>
<text x="122" y="556" font-family="Geist" font-size="13.5" font-weight="500" fill="#4A4A4A">Shipments</text>
<text x="122" y="592" font-family="Geist" font-size="13.5" font-weight="500" fill="#4A4A4A">Agents</text>
</g>
<g id="page-header">
<text x="308" y="388" font-family="Geist" font-size="26" font-weight="600" fill="#0A0A0A" letter-spacing="-0.6">Today</text>
<text x="308" y="411" font-family="Geist" font-size="13" font-weight="400" fill="#6B6B6B">The desk worked the morning inbox.</text>
</g>
<g id="ask-box">
<rect x="308" y="435" width="756" height="100" rx="20" fill="#0A0A0A" fill-opacity="0.04"/>
<rect x="308" y="432" width="756" height="100" rx="20" fill="#FFFFFF" stroke="#0A0A0A" stroke-opacity="0.12"/>
<text x="332" y="468" font-family="Geist" font-size="17" font-weight="400" fill="#0A0A0A">Where is MEDU-1774390?</text>
<rect x="326" y="488" width="32" height="32" rx="10" fill="#F3F3F3"/>
<path d="M347 499 l-7.5 7.5 a3 3 0 0 0 4.2 4.2 l8 -8 a5 5 0 0 0 -7 -7 l-8 8 a7 7 0 0 0 9.9 9.9 l6 -6" transform="translate(-2 -2) scale(0.78) translate(96.4 142.1)" stroke="#4A4A4A" stroke-width="2" fill="none" stroke-linecap="round"/>
<rect x="366" y="488" width="134" height="32" rx="10" fill="#E8F1FF"/>
<circle cx="390.0" cy="504.0" r="1.6" fill="#006BFF" fill-opacity="0.35"/>
<circle cx="388.2" cy="508.2" r="1.6" fill="#006BFF" fill-opacity="0.43"/>
<circle cx="384.0" cy="510.0" r="1.6" fill="#006BFF" fill-opacity="0.51"/>
<circle cx="379.8" cy="508.2" r="1.6" fill="#006BFF" fill-opacity="0.59"/>
<circle cx="378.0" cy="504.0" r="1.6" fill="#006BFF" fill-opacity="0.67"/>
<circle cx="379.8" cy="499.8" r="1.6" fill="#006BFF" fill-opacity="0.75"/>
<circle cx="384.0" cy="498.0" r="1.6" fill="#006BFF" fill-opacity="0.83"/>
<circle cx="388.2" cy="499.8" r="1.6" fill="#006BFF" fill-opacity="0.91"/>
<text x="400" y="509" font-family="Geist" font-size="13" font-weight="600" fill="#006BFF">Ask SQRlane</text>
<circle cx="1030" cy="504" r="18" fill="#0A0A0A"/>
<path d="M1030 512 v-15 M1024 503 l6 -6 l6 6" stroke="#FFFFFF" stroke-width="1.8" fill="none" stroke-linecap="round" stroke-linejoin="round"/>
</g>
<g id="ask-answer">
<rect x="308" y="542" width="756" height="46" rx="12" fill="#E8F1FF"/>
<circle cx="336.0" cy="565.0" r="1.6" fill="#006BFF" fill-opacity="0.35"/>
<circle cx="334.2" cy="569.2" r="1.6" fill="#006BFF" fill-opacity="0.43"/>
<circle cx="330.0" cy="571.0" r="1.6" fill="#006BFF" fill-opacity="0.51"/>
<circle cx="325.8" cy="569.2" r="1.6" fill="#006BFF" fill-opacity="0.59"/>
<circle cx="324.0" cy="565.0" r="1.6" fill="#006BFF" fill-opacity="0.67"/>
<circle cx="325.8" cy="560.8" r="1.6" fill="#006BFF" fill-opacity="0.75"/>
<circle cx="330.0" cy="559.0" r="1.6" fill="#006BFF" fill-opacity="0.83"/>
<circle cx="334.2" cy="560.8" r="1.6" fill="#006BFF" fill-opacity="0.91"/>
<text x="348" y="570" font-family="Geist" font-size="12.5" font-weight="600" fill="#006BFF">Milestones agent</text>
<text x="466" y="570" font-family="Geist" font-size="13" font-weight="400" fill="#0A0A0A">SHP-004, Shenzhen to Antwerp, is on plan. No active risk on its route.</text>
</g>
<g id="suggestions">
<rect x="308" y="600" width="231" height="30" rx="15" fill="#FFFFFF" stroke="#0A0A0A" stroke-opacity="0.12"/>
<text x="423.5" y="620" font-family="Geist" font-size="12" font-weight="500" fill="#4A4A4A" text-anchor="middle">What is waiting for my approval?</text>
<rect x="547" y="600" width="256" height="30" rx="15" fill="#FFFFFF" stroke="#0A0A0A" stroke-opacity="0.12"/>
<text x="675.0" y="620" font-family="Geist" font-size="12" font-weight="500" fill="#4A4A4A" text-anchor="middle">Price 2 x 40HC Shanghai to Rotterdam</text>
<rect x="811" y="600" width="205" height="30" rx="15" fill="#FFFFFF" stroke="#0A0A0A" stroke-opacity="0.12"/>
<text x="913.5" y="620" font-family="Geist" font-size="12" font-weight="500" fill="#4A4A4A" text-anchor="middle">Which invoices are disputed?</text>
</g>
<g id="stat-cards">
<rect x="308.0" y="644" width="180.0" height="84" rx="12" fill="#FFFFFF" stroke="#0A0A0A" stroke-opacity="0.12"/>
<text x="324.0" y="670" font-family="Geist" font-size="12.5" font-weight="500" fill="#6B6B6B">Mails worked</text>
<text x="324.0" y="712" font-family="Geist" font-size="36" font-weight="600" fill="#0A0A0A" letter-spacing="-1.2">13</text>
<rect x="393.0" y="694" width="81" height="20" rx="10.0" fill="#E8F1FF"/>
<text x="433.5" y="707.78" font-family="Geist" font-size="10.5" font-weight="600" fill="#006BFF" text-anchor="middle">all routed</text>
<rect x="500.0" y="644" width="180.0" height="84" rx="12" fill="#FFFFFF" stroke="#0A0A0A" stroke-opacity="0.12"/>
<text x="516.0" y="670" font-family="Geist" font-size="12.5" font-weight="500" fill="#6B6B6B">Handled end to end</text>
<text x="516.0" y="712" font-family="Geist" font-size="36" font-weight="600" fill="#0A0A0A" letter-spacing="-1.2">8</text>
<rect x="591.0" y="694" width="75" height="20" rx="10.0" fill="#E7F5EC"/>
<text x="628.5" y="707.78" font-family="Geist" font-size="10.5" font-weight="600" fill="#0F7B3F" text-anchor="middle">no person</text>
<rect x="692.0" y="644" width="180.0" height="84" rx="12" fill="#FFFFFF" stroke="#0A0A0A" stroke-opacity="0.12"/>
<text x="708.0" y="670" font-family="Geist" font-size="12.5" font-weight="500" fill="#6B6B6B">Held for a person</text>
<text x="708.0" y="712" font-family="Geist" font-size="36" font-weight="600" fill="#0A0A0A" letter-spacing="-1.2">5</text>
<rect x="815.0" y="694" width="43" height="20" rx="10.0" fill="#FDF3E3"/>
<text x="836.5" y="707.78" font-family="Geist" font-size="10.5" font-weight="600" fill="#96580A" text-anchor="middle">held</text>
<rect x="884.0" y="644" width="180.0" height="84" rx="12" fill="#FFFFFF" stroke="#0A0A0A" stroke-opacity="0.12"/>
<text x="900.0" y="670" font-family="Geist" font-size="12.5" font-weight="500" fill="#6B6B6B">Awaiting approval</text>
<text x="900.0" y="712" font-family="Geist" font-size="36" font-weight="600" fill="#0A0A0A" letter-spacing="-1.2">24</text>
<rect x="969.0" y="694" width="81" height="20" rx="10.0" fill="#E8F1FF"/>
<text x="1009.5" y="707.78" font-family="Geist" font-size="10.5" font-weight="600" fill="#006BFF" text-anchor="middle">you decide</text>
</g>
<g id="mail-arrives">
<rect x="308" y="745" width="330" height="128" rx="16" fill="#0A0A0A" fill-opacity="0.04"/>
<rect x="308" y="742" width="330" height="128" rx="16" fill="#FFFFFF" stroke="#0A0A0A" stroke-opacity="0.12"/>
<rect x="326" y="780.0" width="52" height="52" rx="12" fill="#F3F3F3"/>
<g id="mark-outlook" transform="translate(336.0 790.0) scale(1.0000)"><path fill="#0072c6" d="M19.484 7.937v5.477l1.916 1.205a.5.5 0 0 0 .21 0l8.238-5.554a1.174 1.174 0 0 0-.959-1.128Z"/><path fill="#0072c6" d="m19.484 15.457l1.747 1.2a.52.52 0 0 0 .543 0c-.3.181 8.073-5.378 8.073-5.378v10.066a1.408 1.408 0 0 1-1.49 1.555h-8.874zm-9.044-2.525a1.61 1.61 0 0 0-1.42.838a4.13 4.13 0 0 0-.526 2.218A4.05 4.05 0 0 0 9.02 18.2a1.6 1.6 0 0 0 2.771.022a4 4 0 0 0 .515-2.2a4.37 4.37 0 0 0-.5-2.281a1.54 1.54 0 0 0-1.366-.809"/><path fill="#0072c6" d="M2.153 5.155v21.427L18.453 30V2Zm10.908 14.336a3.23 3.23 0 0 1-2.7 1.361a3.19 3.19 0 0 1-2.64-1.318A5.46 5.46 0 0 1 6.706 16.1a5.87 5.87 0 0 1 1.036-3.616a3.27 3.27 0 0 1 2.744-1.384a3.12 3.12 0 0 1 2.61 1.321a5.64 5.64 0 0 1 1 3.484a5.76 5.76 0 0 1-1.035 3.586"/></g>
<circle cx="376" cy="783.0" r="10" fill="#EA001D" stroke="#FFFFFF" stroke-width="2"/>
<text x="376" y="787.5" font-family="Geist" font-size="11.5" font-weight="700" fill="#FFFFFF" text-anchor="middle">1</text>
<text x="398" y="792.0" font-family="Geist" font-size="11.5" font-weight="500" fill="#9A9A9A">New mail · Maison Cardelle SAS</text>
<text x="398" y="812.0" font-family="Geist" font-size="14" font-weight="600" fill="#0A0A0A">Arrival notice: MEDU-2209471</text>
<text x="398" y="831.0" font-family="Geist" font-size="12.5" font-weight="400" fill="#6B6B6B">at Fos-sur-Mer</text>
</g>
<path d="M646 806.0 L662 806.0" stroke="#0A0A0A" stroke-opacity="0.3" stroke-width="1.5" fill="none"/>
<path d="M661 801.5 L667 806.0 L661 810.5" stroke="#0A0A0A" stroke-opacity="0.3" stroke-width="1.5" fill="none"/>
<g id="agent-works-it">
<rect x="674" y="745" width="390" height="128" rx="16" fill="#0A0A0A" fill-opacity="0.04"/>
<rect x="674" y="742" width="390" height="128" rx="16" fill="#FFFFFF" stroke="#0A0A0A" stroke-opacity="0.12"/>
<circle cx="707.0" cy="770.0" r="1.9" fill="#006BFF" fill-opacity="0.35"/>
<circle cx="704.9" cy="774.9" r="1.9" fill="#006BFF" fill-opacity="0.43"/>
<circle cx="700.0" cy="777.0" r="1.9" fill="#006BFF" fill-opacity="0.51"/>
<circle cx="695.1" cy="774.9" r="1.9" fill="#006BFF" fill-opacity="0.59"/>
<circle cx="693.0" cy="770.0" r="1.9" fill="#006BFF" fill-opacity="0.67"/>
<circle cx="695.1" cy="765.1" r="1.9" fill="#006BFF" fill-opacity="0.75"/>
<circle cx="700.0" cy="763.0" r="1.9" fill="#006BFF" fill-opacity="0.83"/>
<circle cx="704.9" cy="765.1" r="1.9" fill="#006BFF" fill-opacity="0.91"/>
<text x="718" y="775" font-family="Geist" font-size="13.5" font-weight="600" fill="#0A0A0A">Customs agent</text>
<rect x="1005" y="760" width="43" height="20" rx="10.0" fill="#E7F5EC"/>
<text x="1026.5" y="773.78" font-family="Geist" font-size="10.5" font-weight="600" fill="#0F7B3F" text-anchor="middle">done</text>
<text x="692" y="804" font-family="Geist" font-size="14" font-weight="400" fill="#0A0A0A">Entry prepared for France. Not filed.</text>
<rect x="692" y="834" width="70" height="22" rx="6" fill="#F3F3F3"/>
<text x="727" y="849" font-family="Geist" font-size="11.5" font-weight="600" fill="#3A3A3A" text-anchor="middle">SHP-007</text>
<text x="772" y="849" font-family="Geist" font-size="11.5" font-weight="600" fill="#96580A">Queued, not written</text>
<rect x="968" y="830" width="80" height="28" rx="8" fill="#0A0A0A"/>
<text x="1008" y="849" font-family="Geist" font-size="12" font-weight="600" fill="#FFFFFF" text-anchor="middle">Approve</text>
</g>
</g>
<g id="how-the-work-is-structured">
<rect x="1120" y="306" width="704" height="584" rx="14" fill="#FFFFFF" stroke="#0A0A0A" stroke-opacity="0.12"/>
<text x="1144" y="342" font-family="Geist" font-size="13" font-weight="600" fill="#96580A" letter-spacing="1.4">HOW THE WORK IS STRUCTURED</text>
<text x="1800" y="342" font-family="Geist" font-size="12" font-weight="500" fill="#9A9A9A" text-anchor="end">14 live · Planner scripted · TMS link demo</text>
<g id="risk-layer">
<rect x="1144" y="362" width="656" height="40" rx="10" fill="#F3F3F3" stroke="#0A0A0A" stroke-opacity="0.10" stroke-dasharray="4 3"/>
<text x="1158" y="387" font-family="Geist" font-size="13.5" font-weight="600" fill="#7A7A7A">Risk layer</text>
<rect x="1240" y="372" width="64" height="19" rx="9.5" fill="#FFFFFF"/>
<text x="1272.0" y="385.5" font-family="Geist" font-size="10.5" font-weight="600" fill="#7A7A7A" text-anchor="middle">4 agents</text>
<text x="1316" y="387" font-family="Geist" font-size="11.5" font-weight="400" fill="#8A8A8A">watches 60 sources, decides reroute or hold</text>
<text x="1786" y="387" font-family="Geist" font-size="11.5" font-weight="600" fill="#8A8A8A" text-anchor="end">slide 08</text>
</g>
<path d="M1472.0 402 L1472.0 409" stroke="#0A0A0A" stroke-opacity="0.3" stroke-width="1.5" fill="none"/>
<path d="M1467.5 408 L1472.0 414 L1476.5 408" stroke="#0A0A0A" stroke-opacity="0.3" stroke-width="1.5" fill="none"/>
<g id="front-doors">
<rect x="1144" y="416" width="408" height="40" rx="10" fill="#FFFFFF" stroke="#0A0A0A" stroke-opacity="0.16"/>
<text x="1158" y="441" font-family="Geist" font-size="13.5" font-weight="600" fill="#0A0A0A">Inbox</text>
<rect x="1206" y="426" width="58" height="19" rx="9.5" fill="#E8F1FF"/>
<text x="1235.0" y="439.5" font-family="Geist" font-size="10.5" font-weight="600" fill="#006BFF" text-anchor="middle">1 agent</text>
<text x="1276" y="441" font-family="Geist" font-size="11.5" font-weight="400" fill="#6B6B6B">reads every mail, routes it to its owner</text>
<rect x="1560" y="416" width="240" height="40" rx="10" fill="#FFFFFF" stroke="#0A0A0A" stroke-opacity="0.16"/>
<text x="1574" y="441" font-family="Geist" font-size="13.5" font-weight="600" fill="#0A0A0A">Assistant</text>
<rect x="1648" y="426" width="58" height="19" rx="9.5" fill="#E8F1FF"/>
<text x="1677.0" y="439.5" font-family="Geist" font-size="10.5" font-weight="600" fill="#006BFF" text-anchor="middle">1 agent</text>
<text x="1716" y="441" font-family="Geist" font-size="11.5" font-weight="400" fill="#6B6B6B">your questions</text>
</g>
<path d="M1472.0 456 L1472.0 463" stroke="#0A0A0A" stroke-opacity="0.3" stroke-width="1.5" fill="none"/>
<path d="M1467.5 462 L1472.0 468 L1476.5 462" stroke="#0A0A0A" stroke-opacity="0.3" stroke-width="1.5" fill="none"/>
<g id="the-desk">
<rect x="1144" y="470" width="656" height="234" rx="12" fill="#FAFAFA" stroke="#0A0A0A" stroke-opacity="0.10"/>
<text x="1158" y="492" font-family="Geist" font-size="10.5" font-weight="700" fill="#6B6B6B" letter-spacing="1.2">THE DESK</text>
<text x="1228" y="492" font-family="Geist" font-size="11.5" font-weight="400" fill="#6B6B6B">8 agents, in the order a shipment lives</text>
<g id="stage-quote">
<rect x="1158.0" y="506" width="204.0" height="92" rx="10" fill="#FFFFFF" stroke="#0A0A0A" stroke-opacity="0.12"/>
<text x="1172.0" y="532" font-family="Geist" font-size="11" font-weight="700" fill="#9A9A9A" letter-spacing="0.6">01</text>
<text x="1196.0" y="532" font-family="Geist" font-size="14.5" font-weight="600" fill="#0A0A0A" letter-spacing="-0.2">Quote</text>
<rect x="1286.0" y="517" width="64" height="19" rx="9.5" fill="#E8F1FF"/>
<text x="1318.0" y="530.5" font-family="Geist" font-size="10.5" font-weight="600" fill="#006BFF" text-anchor="middle">2 agents</text>
<text x="1172.0" y="553" font-family="Geist" font-size="11.5" font-weight="400" fill="#6B6B6B">Prices it, drafts the quote</text>
<rect x="1172.0" y="566" width="42" height="20" rx="5" fill="#F3F3F3"/>
<text x="1193.0" y="580" font-family="Geist" font-size="11" font-weight="500" fill="#3A3A3A" text-anchor="middle">Rate</text>
<rect x="1219.0" y="566" width="35" height="20" rx="5" fill="#F3F3F3"/>
<text x="1236.5" y="580" font-family="Geist" font-size="11" font-weight="500" fill="#3A3A3A" text-anchor="middle">RFQ</text>
</g>
<g id="stage-book">
<rect x="1370.0" y="506" width="204.0" height="92" rx="10" fill="#FFFFFF" stroke="#0A0A0A" stroke-opacity="0.12"/>
<text x="1384.0" y="532" font-family="Geist" font-size="11" font-weight="700" fill="#9A9A9A" letter-spacing="0.6">02</text>
<text x="1408.0" y="532" font-family="Geist" font-size="14.5" font-weight="600" fill="#0A0A0A" letter-spacing="-0.2">Book</text>
<rect x="1504.0" y="517" width="58" height="19" rx="9.5" fill="#E8F1FF"/>
<text x="1533.0" y="530.5" font-family="Geist" font-size="10.5" font-weight="600" fill="#006BFF" text-anchor="middle">1 agent</text>
<text x="1384.0" y="553" font-family="Geist" font-size="11.5" font-weight="400" fill="#6B6B6B">Opens the booking from the mail</text>
<rect x="1384.0" y="566" width="61" height="20" rx="5" fill="#F3F3F3"/>
<text x="1414.5" y="580" font-family="Geist" font-size="11" font-weight="500" fill="#3A3A3A" text-anchor="middle">Booking</text>
</g>
<g id="stage-documents">
<rect x="1582.0" y="506" width="204.0" height="92" rx="10" fill="#FFFFFF" stroke="#0A0A0A" stroke-opacity="0.12"/>
<text x="1596.0" y="532" font-family="Geist" font-size="11" font-weight="700" fill="#9A9A9A" letter-spacing="0.6">03</text>
<text x="1620.0" y="532" font-family="Geist" font-size="14.5" font-weight="600" fill="#0A0A0A" letter-spacing="-0.2">Documents</text>
<rect x="1716.0" y="517" width="58" height="19" rx="9.5" fill="#E8F1FF"/>
<text x="1745.0" y="530.5" font-family="Geist" font-size="10.5" font-weight="600" fill="#006BFF" text-anchor="middle">1 agent</text>
<text x="1596.0" y="553" font-family="Geist" font-size="11.5" font-weight="400" fill="#6B6B6B">Checks each field on the B/L</text>
<rect x="1596.0" y="566" width="42" height="20" rx="5" fill="#F3F3F3"/>
<text x="1617.0" y="580" font-family="Geist" font-size="11" font-weight="500" fill="#3A3A3A" text-anchor="middle">Docs</text>
</g>
<g id="stage-in-transit">
<rect x="1158.0" y="606" width="204.0" height="92" rx="10" fill="#FFFFFF" stroke="#0A0A0A" stroke-opacity="0.12"/>
<text x="1172.0" y="632" font-family="Geist" font-size="11" font-weight="700" fill="#9A9A9A" letter-spacing="0.6">04</text>
<text x="1196.0" y="632" font-family="Geist" font-size="14.5" font-weight="600" fill="#0A0A0A" letter-spacing="-0.2">In transit</text>
<rect x="1286.0" y="617" width="64" height="19" rx="9.5" fill="#E8F1FF"/>
<text x="1318.0" y="630.5" font-family="Geist" font-size="10.5" font-weight="600" fill="#006BFF" text-anchor="middle">2 agents</text>
<text x="1172.0" y="653" font-family="Geist" font-size="11.5" font-weight="400" fill="#6B6B6B">Updates the ETA, flags rollovers</text>
<rect x="1172.0" y="666" width="80" height="20" rx="5" fill="#F3F3F3"/>
<text x="1212.0" y="680" font-family="Geist" font-size="11" font-weight="500" fill="#3A3A3A" text-anchor="middle">Milestones</text>
<rect x="1257.0" y="666" width="74" height="20" rx="5" fill="#F3F3F3"/>
<text x="1294.0" y="680" font-family="Geist" font-size="11" font-weight="500" fill="#3A3A3A" text-anchor="middle">Exception</text>
</g>
<g id="stage-arrival">
<rect x="1370.0" y="606" width="204.0" height="92" rx="10" fill="#FFFFFF" stroke="#0A0A0A" stroke-opacity="0.12"/>
<text x="1384.0" y="632" font-family="Geist" font-size="11" font-weight="700" fill="#9A9A9A" letter-spacing="0.6">05</text>
<text x="1408.0" y="632" font-family="Geist" font-size="14.5" font-weight="600" fill="#0A0A0A" letter-spacing="-0.2">Arrival</text>
<rect x="1504.0" y="617" width="58" height="19" rx="9.5" fill="#E8F1FF"/>
<text x="1533.0" y="630.5" font-family="Geist" font-size="10.5" font-weight="600" fill="#006BFF" text-anchor="middle">1 agent</text>
<text x="1384.0" y="653" font-family="Geist" font-size="11.5" font-weight="400" fill="#6B6B6B">Prepares the entry, never files</text>
<rect x="1384.0" y="666" width="61" height="20" rx="5" fill="#F3F3F3"/>
<text x="1414.5" y="680" font-family="Geist" font-size="11" font-weight="500" fill="#3A3A3A" text-anchor="middle">Customs</text>
</g>
<g id="stage-billing">
<rect x="1582.0" y="606" width="204.0" height="92" rx="10" fill="#FFFFFF" stroke="#0A0A0A" stroke-opacity="0.12"/>
<text x="1596.0" y="632" font-family="Geist" font-size="11" font-weight="700" fill="#9A9A9A" letter-spacing="0.6">06</text>
<text x="1620.0" y="632" font-family="Geist" font-size="14.5" font-weight="600" fill="#0A0A0A" letter-spacing="-0.2">Billing</text>
<rect x="1716.0" y="617" width="58" height="19" rx="9.5" fill="#E8F1FF"/>
<text x="1745.0" y="630.5" font-family="Geist" font-size="10.5" font-weight="600" fill="#006BFF" text-anchor="middle">1 agent</text>
<text x="1596.0" y="653" font-family="Geist" font-size="11.5" font-weight="400" fill="#6B6B6B">Checks the bill against the rate</text>
<rect x="1596.0" y="666" width="61" height="20" rx="5" fill="#F3F3F3"/>
<text x="1626.5" y="680" font-family="Geist" font-size="11" font-weight="500" fill="#3A3A3A" text-anchor="middle">Invoice</text>
</g>
</g>
<path d="M1260.0 704 L1260.0 712" stroke="#96580A" stroke-opacity="0.6" stroke-width="1.5" fill="none"/>
<path d="M1472.0 704 L1472.0 712" stroke="#96580A" stroke-opacity="0.6" stroke-width="1.5" fill="none"/>
<path d="M1684.0 704 L1684.0 712" stroke="#96580A" stroke-opacity="0.6" stroke-width="1.5" fill="none"/>
<g id="playbook">
<rect x="1144" y="712" width="656" height="36" rx="10" fill="#FDF3E3"/>
<text x="1158" y="735" font-family="Geist" font-size="13.5" font-weight="600" fill="#96580A">Playbook</text>
<rect x="1230" y="721" width="58" height="19" rx="9.5" fill="#FFFFFF"/>
<text x="1259.0" y="734.5" font-family="Geist" font-size="10.5" font-weight="600" fill="#96580A" text-anchor="middle">1 agent</text>
<text x="1300" y="735" font-family="Geist" font-size="11.5" font-weight="400" fill="#96580A">checks every output against the customer's rules</text>
</g>
<path d="M1472.0 748 L1472.0 755" stroke="#0A0A0A" stroke-opacity="0.3" stroke-width="1.5" fill="none"/>
<path d="M1467.5 754 L1472.0 760 L1476.5 754" stroke="#0A0A0A" stroke-opacity="0.3" stroke-width="1.5" fill="none"/>
<g id="gate-and-record">
<rect x="1144" y="762" width="314.0" height="40" rx="10" fill="#0A0A0A"/>
<text x="1158" y="787" font-family="Geist" font-size="13.5" font-weight="700" fill="#FFFFFF">You approve</text>
<text x="1252" y="787" font-family="Geist" font-size="11.5" font-weight="400" fill="#D6D6D6">every draft, every change</text>
<path d="M1462.0 782 L1477.0 782" stroke="#0A0A0A" stroke-opacity="0.3" stroke-width="1.5" fill="none"/>
<path d="M1476.0 777.5 L1482.0 782 L1476.0 786.5" stroke="#0A0A0A" stroke-opacity="0.3" stroke-width="1.5" fill="none"/>
<rect x="1486.0" y="762" width="314.0" height="40" rx="10" fill="#FFFFFF" stroke="#0A0A0A" stroke-opacity="0.16"/>
<text x="1500.0" y="787" font-family="Geist" font-size="13.5" font-weight="600" fill="#0A0A0A">TMS link</text>
<rect x="1570.0" y="772" width="58" height="19" rx="9.5" fill="#E8F1FF"/>
<text x="1599.0" y="785.5" font-family="Geist" font-size="10.5" font-weight="600" fill="#006BFF" text-anchor="middle">1 agent</text>
<text x="1638.0" y="787" font-family="Geist" font-size="11.5" font-weight="400" fill="#6B6B6B">writes it onto the booking</text>
</g>
<g id="worked-together">
<text x="1144" y="830" font-family="Geist" font-size="10.5" font-weight="700" fill="#6B6B6B" letter-spacing="1.2">ONE MAIL, TOGETHER</text>
<text x="1294" y="830" font-family="Geist" font-size="11.5" font-weight="400" fill="#6B6B6B">IN-108, a vaccine booking</text>
<rect x="1144" y="842" width="47" height="22" rx="5" fill="#F3F3F3"/>
<text x="1167.5" y="857" font-family="Geist" font-size="11" font-weight="500" fill="#3A3A3A" text-anchor="middle">Inbox</text>
<text x="1195" y="857" font-family="Geist" font-size="12" font-weight="500" fill="#6B6B6B">›</text>
<rect x="1205" y="842" width="59" height="22" rx="5" fill="#F3F3F3"/>
<text x="1234.5" y="857" font-family="Geist" font-size="11" font-weight="500" fill="#3A3A3A" text-anchor="middle">Booking</text>
<text x="1268" y="857" font-family="Geist" font-size="12" font-weight="500" fill="#6B6B6B">›</text>
<rect x="1278" y="842" width="41" height="22" rx="5" fill="#F3F3F3"/>
<text x="1298.5" y="857" font-family="Geist" font-size="11" font-weight="500" fill="#3A3A3A" text-anchor="middle">Docs</text>
<text x="1323" y="857" font-family="Geist" font-size="12" font-weight="500" fill="#6B6B6B">›</text>
<rect x="1333" y="842" width="41" height="22" rx="5" fill="#F3F3F3"/>
<text x="1353.5" y="857" font-family="Geist" font-size="11" font-weight="500" fill="#3A3A3A" text-anchor="middle">Rate</text>
<text x="1378" y="857" font-family="Geist" font-size="12" font-weight="500" fill="#6B6B6B">›</text>
<rect x="1388" y="842" width="152" height="22" rx="5" fill="#96580A"/>
<text x="1464.0" y="857" font-family="Geist" font-size="11" font-weight="600" fill="#FFFFFF" text-anchor="middle">Playbook sends it back</text>
<text x="1544" y="857" font-family="Geist" font-size="12" font-weight="500" fill="#6B6B6B">›</text>
<rect x="1554" y="842" width="109" height="22" rx="5" fill="#F3F3F3"/>
<text x="1608.5" y="857" font-family="Geist" font-size="11" font-weight="500" fill="#3A3A3A" text-anchor="middle">Booking rebooks</text>
<text x="1667" y="857" font-family="Geist" font-size="12" font-weight="500" fill="#6B6B6B">›</text>
<rect x="1677" y="842" width="84" height="22" rx="5" fill="#0A0A0A"/>
<text x="1719.0" y="857" font-family="Geist" font-size="11" font-weight="600" fill="#FFFFFF" text-anchor="middle">You approve</text>
</g>
</g>
<text x="96" y="946" font-family="Geist" font-size="28" font-weight="600" fill="#0A0A0A" letter-spacing="-0.6">Ask the desk anything. Every step recorded, and approved by you.</text>
<g id="footer">
<rect x="96" y="978" width="1728" height="1" fill="#0A0A0A" fill-opacity="0.12"/>
<rect x="96" y="1004" width="22" height="22" rx="6" fill="#0A0A0A"/>
<path d="M101.5 1020h11 M101.5 1015h7.5 M101.5 1010h4" stroke="#FAFAFA" stroke-width="1.8" stroke-linecap="round" fill="none"/>
<text x="130" y="1021" font-family="Geist" font-size="16" font-weight="600" fill="#0A0A0A">sqrlane</text>
<text x="200" y="1021" font-family="Geist" font-size="14" font-weight="400" fill="#6B6B6B">Automates the desk. Acts before the route breaks.</text>
<text x="1824" y="1021" font-family="Geist" font-size="12.5" font-weight="500" fill="#6B6B6B" text-anchor="end" letter-spacing="1.2">SLIDE 07</text>
</g>
</svg>