<svg xmlns="http://www.w3.org/2000/svg" width="1920" height="1080" viewBox="0 0 1920 1080">
<rect id="background" x="0" y="0" width="1920" height="1080" fill="#FAFAFA"/>
<g id="header">
<rect x="96" y="104" width="10" height="10" rx="2" fill="#96580A"/>
<text x="120" y="114" font-family="Geist" font-size="15" font-weight="500" fill="#6B6B6B" letter-spacing="1.44">06 · THE HOW, 1 OF 2</text>
<text x="93" y="196" font-family="Geist" font-size="66" font-weight="600" fill="#0A0A0A" letter-spacing="-2">SQRlane does the desk work itself.</text>
<text x="96" y="246" font-family="Geist" font-size="24" font-weight="400" fill="#6B6B6B">Every mail read once. Sixteen agents do the work. Nothing leaves without you.</text>
<rect x="96" y="282" width="1728" height="1" fill="#0A0A0A" fill-opacity="0.12"/>
</g>
<g id="dashboard">
<rect x="96" y="306" width="940" height="584" rx="14" fill="#FFFFFF" stroke="#0A0A0A" stroke-opacity="0.14"/>
<g id="window-bar">
<rect x="96" y="306" width="940" height="36" rx="14" fill="#F4F4F4"/>
<rect x="96" y="328" width="940" height="14" fill="#F4F4F4"/>
<rect x="96" y="342" width="940" height="1" fill="#0A0A0A" fill-opacity="0.09"/>
<circle cx="116" cy="324" r="5" fill="#DEDEDE"/>
<circle cx="132" cy="324" r="5" fill="#DEDEDE"/>
<circle cx="148" cy="324" r="5" fill="#DEDEDE"/>
<rect x="843" y="314" width="179" height="20" rx="10" fill="#F6EEE3"/>
<text x="932.5" y="328" font-family="Geist" font-size="10.5" font-weight="600" fill="#96580A" text-anchor="middle">Demo run · synthetic inbox</text>
</g>
<g id="sidebar">
<rect x="97" y="343" width="164" height="546" fill="#FBFBFB"/>
<rect x="260" y="343" width="1" height="546" fill="#0A0A0A" fill-opacity="0.08"/>
<rect x="114" y="365" width="22" height="22" rx="6" fill="#0A0A0A"/>
<path d="M119.5 381h11 M119.5 376h7.5 M119.5 371h4" stroke="#FAFAFA" stroke-width="1.8" stroke-linecap="round" fill="none"/>
<text x="146" y="382" font-family="Geist" font-size="15" font-weight="600" fill="#0A0A0A">SQRlane</text>
<rect x="106" y="419" width="144" height="30" rx="7" fill="#EBEBEB"/>
<text x="118" y="439" font-family="Geist" font-size="13" font-weight="600" fill="#0A0A0A">Overview</text>
<text x="118" y="473" font-family="Geist" font-size="13" font-weight="500" fill="#4A4A4A">Inbox</text>
<text x="238" y="473" font-family="Geist" font-size="12" font-weight="500" fill="#6B6B6B" text-anchor="end">13</text>
<text x="118" y="507" font-family="Geist" font-size="13" font-weight="500" fill="#4A4A4A">Approvals</text>
<text x="238" y="507" font-family="Geist" font-size="12" font-weight="500" fill="#6B6B6B" text-anchor="end">24</text>
<text x="118" y="541" font-family="Geist" font-size="13" font-weight="500" fill="#4A4A4A">Shipments</text>
<text x="238" y="541" font-family="Geist" font-size="12" font-weight="500" fill="#6B6B6B" text-anchor="end">7</text>
<text x="118" y="575" font-family="Geist" font-size="13" font-weight="500" fill="#4A4A4A">Agents</text>
<text x="238" y="575" font-family="Geist" font-size="12" font-weight="500" fill="#6B6B6B" text-anchor="end">16</text>
<text x="118" y="609" font-family="Geist" font-size="13" font-weight="500" fill="#4A4A4A">TMS link</text>
</g>
<text x="288" y="386" font-family="Geist" font-size="22" font-weight="600" fill="#0A0A0A" letter-spacing="-0.4">Overview</text>
<text x="288" y="407" font-family="Geist" font-size="13" font-weight="400" fill="#6B6B6B">The desk worked the morning inbox.</text>
<g id="stat-cards">
<rect x="288.0" y="428" width="171.0" height="104" rx="12" fill="#FFFFFF" stroke="#0A0A0A" stroke-opacity="0.12"/>
<text x="304.0" y="456" font-family="Geist" font-size="12.5" font-weight="500" fill="#6B6B6B">Mails worked</text>
<rect x="373.0" y="484" width="74" height="20" rx="10" fill="#EAF1F8"/>
<text x="410.0" y="498" font-family="Geist" font-size="10.5" font-weight="600" fill="#3D72A8" text-anchor="middle">13 routed</text>
<text x="304.0" y="500" font-family="Geist" font-size="36" font-weight="600" fill="#0A0A0A" letter-spacing="-1.2">13</text>
<text x="304.0" y="520" font-family="Geist" font-size="11" font-weight="400" fill="#6B6B6B">every mail to its owner</text>
<rect x="471.0" y="428" width="171.0" height="104" rx="12" fill="#FFFFFF" stroke="#0A0A0A" stroke-opacity="0.12"/>
<text x="487.0" y="456" font-family="Geist" font-size="12.5" font-weight="500" fill="#6B6B6B">Handled end to end</text>
<rect x="556.0" y="484" width="74" height="20" rx="10" fill="#EAF1F8"/>
<text x="593.0" y="498" font-family="Geist" font-size="10.5" font-weight="600" fill="#3D72A8" text-anchor="middle">no person</text>
<text x="487.0" y="500" font-family="Geist" font-size="36" font-weight="600" fill="#0A0A0A" letter-spacing="-1.2">8</text>
<text x="517.0" y="500" font-family="Geist" font-size="18" font-weight="500" fill="#6B6B6B">of 13</text>
<text x="487.0" y="520" font-family="Geist" font-size="11" font-weight="400" fill="#6B6B6B">worked through to approval</text>
<rect x="654.0" y="428" width="171.0" height="104" rx="12" fill="#FFFFFF" stroke="#0A0A0A" stroke-opacity="0.12"/>
<text x="670.0" y="456" font-family="Geist" font-size="12.5" font-weight="500" fill="#6B6B6B">Held for a person</text>
<rect x="727.0" y="484" width="86" height="20" rx="10" fill="#F6EEE3"/>
<text x="770.0" y="498" font-family="Geist" font-size="10.5" font-weight="600" fill="#96580A" text-anchor="middle">not guessed</text>
<text x="670.0" y="500" font-family="Geist" font-size="36" font-weight="600" fill="#0A0A0A" letter-spacing="-1.2">5</text>
<text x="670.0" y="520" font-family="Geist" font-size="11" font-weight="400" fill="#6B6B6B">a person decides</text>
<rect x="837.0" y="428" width="171.0" height="104" rx="12" fill="#FFFFFF" stroke="#0A0A0A" stroke-opacity="0.12"/>
<text x="853.0" y="456" font-family="Geist" font-size="12.5" font-weight="500" fill="#6B6B6B">Awaiting your approval</text>
<rect x="947.0" y="484" width="49" height="20" rx="10" fill="#EBEBEB"/>
<text x="971.5" y="498" font-family="Geist" font-size="10.5" font-weight="600" fill="#4A4A4A" text-anchor="middle">gated</text>
<text x="853.0" y="500" font-family="Geist" font-size="36" font-weight="600" fill="#0A0A0A" letter-spacing="-1.2">24</text>
<text x="853.0" y="520" font-family="Geist" font-size="11" font-weight="400" fill="#6B6B6B">10 drafts · 14 TMS changes</text>
</g>
<g id="chart-how-mails-ended">
<rect x="288" y="546" width="352" height="324" rx="12" fill="#FFFFFF" stroke="#0A0A0A" stroke-opacity="0.12"/>
<text x="308" y="578" font-family="Geist" font-size="15" font-weight="600" fill="#0A0A0A">How the 13 mails ended</text>
<text x="308" y="598" font-family="Geist" font-size="12" font-weight="400" fill="#6B6B6B">One square per mail</text>
<rect x="308" y="618" width="38" height="38" rx="6" fill="#3D72A8"/>
<text x="327.0" y="641.0" font-family="Geist" font-size="10.5" font-weight="600" fill="#FFFFFF" text-anchor="middle">101</text>
<rect x="352" y="618" width="38" height="38" rx="6" fill="#3D72A8"/>
<text x="371.0" y="641.0" font-family="Geist" font-size="10.5" font-weight="600" fill="#FFFFFF" text-anchor="middle">103</text>
<rect x="396" y="618" width="38" height="38" rx="6" fill="#3D72A8"/>
<text x="415.0" y="641.0" font-family="Geist" font-size="10.5" font-weight="600" fill="#FFFFFF" text-anchor="middle">106</text>
<rect x="440" y="618" width="38" height="38" rx="6" fill="#3D72A8"/>
<text x="459.0" y="641.0" font-family="Geist" font-size="10.5" font-weight="600" fill="#FFFFFF" text-anchor="middle">107</text>
<rect x="484" y="618" width="38" height="38" rx="6" fill="#3D72A8"/>
<text x="503.0" y="641.0" font-family="Geist" font-size="10.5" font-weight="600" fill="#FFFFFF" text-anchor="middle">108</text>
<rect x="528" y="618" width="38" height="38" rx="6" fill="#3D72A8"/>
<text x="547.0" y="641.0" font-family="Geist" font-size="10.5" font-weight="600" fill="#FFFFFF" text-anchor="middle">110</text>
<rect x="572" y="618" width="38" height="38" rx="6" fill="#3D72A8"/>
<text x="591.0" y="641.0" font-family="Geist" font-size="10.5" font-weight="600" fill="#FFFFFF" text-anchor="middle">111</text>
<rect x="308" y="662" width="38" height="38" rx="6" fill="#3D72A8"/>
<text x="327.0" y="685.0" font-family="Geist" font-size="10.5" font-weight="600" fill="#FFFFFF" text-anchor="middle">113</text>
<rect x="352" y="662" width="38" height="38" rx="6" fill="#96580A"/>
<text x="371.0" y="685.0" font-family="Geist" font-size="10.5" font-weight="600" fill="#FFFFFF" text-anchor="middle">102</text>
<rect x="396" y="662" width="38" height="38" rx="6" fill="#96580A"/>
<text x="415.0" y="685.0" font-family="Geist" font-size="10.5" font-weight="600" fill="#FFFFFF" text-anchor="middle">104</text>
<rect x="440" y="662" width="38" height="38" rx="6" fill="#96580A"/>
<text x="459.0" y="685.0" font-family="Geist" font-size="10.5" font-weight="600" fill="#FFFFFF" text-anchor="middle">105</text>
<rect x="484" y="662" width="38" height="38" rx="6" fill="#96580A"/>
<text x="503.0" y="685.0" font-family="Geist" font-size="10.5" font-weight="600" fill="#FFFFFF" text-anchor="middle">109</text>
<rect x="528" y="662" width="38" height="38" rx="6" fill="#96580A"/>
<text x="547.0" y="685.0" font-family="Geist" font-size="10.5" font-weight="600" fill="#FFFFFF" text-anchor="middle">112</text>
<circle cx="314" cy="719" r="5" fill="#3D72A8"/>
<text x="328" y="724" font-family="Geist" font-size="13" font-weight="600" fill="#0A0A0A">End to end</text>
<text x="620" y="724" font-family="Geist" font-size="13" font-weight="600" fill="#0A0A0A" text-anchor="end">8</text>
<text x="328" y="742" font-family="Geist" font-size="11.5" font-weight="400" fill="#6B6B6B">worked through to your approval</text>
<circle cx="314" cy="765" r="5" fill="#96580A"/>
<text x="328" y="770" font-family="Geist" font-size="13" font-weight="600" fill="#0A0A0A">Held for a person</text>
<text x="620" y="770" font-family="Geist" font-size="13" font-weight="600" fill="#0A0A0A" text-anchor="end">5</text>
<text x="328" y="788" font-family="Geist" font-size="11.5" font-weight="400" fill="#6B6B6B">a detail no agent could verify</text>
<rect x="308" y="820" width="312" height="1" fill="#0A0A0A" fill-opacity="0.08"/>
<text x="308" y="842" font-family="Geist" font-size="11.5" font-weight="400" fill="#6B6B6B">Held: 3 bookings missing a detail, 1 rolled box,</text>
<text x="308" y="858" font-family="Geist" font-size="11.5" font-weight="400" fill="#6B6B6B">1 transit leaving the EU.</text>
</g>
<g id="chart-what-came-in">
<rect x="652" y="546" width="356" height="324" rx="12" fill="#FFFFFF" stroke="#0A0A0A" stroke-opacity="0.12"/>
<text x="672" y="578" font-family="Geist" font-size="15" font-weight="600" fill="#0A0A0A">What came in</text>
<text x="672" y="598" font-family="Geist" font-size="12" font-weight="400" fill="#6B6B6B">13 mails, by the job they start</text>
<text x="672" y="639.0" font-family="Geist" font-size="12.5" font-weight="500" fill="#3A3A3A">Quote</text>
<rect x="760" y="628.0" width="204" height="14" rx="4" fill="#EBEBEB"/>
<rect x="760" y="628.0" width="51.0" height="14" rx="4" fill="#3A3A3A"/>
<text x="988" y="639.0" font-family="Geist" font-size="12.5" font-weight="600" fill="#0A0A0A" text-anchor="end">1</text>
<text x="672" y="677.6666666666666" font-family="Geist" font-size="12.5" font-weight="500" fill="#3A3A3A">Book</text>
<rect x="760" y="666.6666666666666" width="204" height="14" rx="4" fill="#EBEBEB"/>
<rect x="760" y="666.6666666666666" width="204.0" height="14" rx="4" fill="#3A3A3A"/>
<text x="988" y="677.6666666666666" font-family="Geist" font-size="12.5" font-weight="600" fill="#0A0A0A" text-anchor="end">4</text>
<text x="672" y="716.3333333333334" font-family="Geist" font-size="12.5" font-weight="500" fill="#3A3A3A">Documents</text>
<rect x="760" y="705.3333333333334" width="204" height="14" rx="4" fill="#EBEBEB"/>
<rect x="760" y="705.3333333333334" width="102.0" height="14" rx="4" fill="#3A3A3A"/>
<text x="988" y="716.3333333333334" font-family="Geist" font-size="12.5" font-weight="600" fill="#0A0A0A" text-anchor="end">2</text>
<text x="672" y="755.0" font-family="Geist" font-size="12.5" font-weight="500" fill="#3A3A3A">In transit</text>
<rect x="760" y="744.0" width="204" height="14" rx="4" fill="#EBEBEB"/>
<rect x="760" y="744.0" width="153.0" height="14" rx="4" fill="#3A3A3A"/>
<text x="988" y="755.0" font-family="Geist" font-size="12.5" font-weight="600" fill="#0A0A0A" text-anchor="end">3</text>
<text x="672" y="793.6666666666666" font-family="Geist" font-size="12.5" font-weight="500" fill="#3A3A3A">Arrival</text>
<rect x="760" y="782.6666666666666" width="204" height="14" rx="4" fill="#EBEBEB"/>
<rect x="760" y="782.6666666666666" width="102.0" height="14" rx="4" fill="#3A3A3A"/>
<text x="988" y="793.6666666666666" font-family="Geist" font-size="12.5" font-weight="600" fill="#0A0A0A" text-anchor="end">2</text>
<text x="672" y="832.3333333333333" font-family="Geist" font-size="12.5" font-weight="500" fill="#3A3A3A">Billing</text>
<rect x="760" y="821.3333333333333" width="204" height="14" rx="4" fill="#EBEBEB"/>
<rect x="760" y="821.3333333333333" width="51.0" height="14" rx="4" fill="#3A3A3A"/>
<text x="988" y="832.3333333333333" font-family="Geist" font-size="12.5" font-weight="600" fill="#0A0A0A" text-anchor="end">1</text>
</g>
</g>
<g id="how-the-work-is-structured">
<rect x="1060" y="306" width="764" height="584" rx="14" fill="#FFFFFF" stroke="#0A0A0A" stroke-opacity="0.12"/>
<text x="1084" y="342" font-family="Geist" font-size="13" font-weight="600" fill="#96580A" letter-spacing="1.4">HOW THE WORK IS STRUCTURED</text>
<text x="1800" y="342" font-family="Geist" font-size="12.5" font-weight="500" fill="#6B6B6B" text-anchor="end">14 live · Planner scripted · TMS link demo</text>
<g id="risk-layer">
<rect x="1084" y="362" width="716" height="40" rx="10" fill="#EAF1F8" stroke="#3D72A8" stroke-opacity="0.35" stroke-dasharray="4 3"/>
<text x="1098" y="387" font-family="Geist" font-size="13.5" font-weight="600" fill="#3D72A8">Risk layer</text>
<rect x="1180" y="373" width="62" height="18" rx="9" fill="#FFFFFF"/>
<text x="1211.0" y="386" font-family="Geist" font-size="10" font-weight="600" fill="#3D72A8" text-anchor="middle">4 agents</text>
<text x="1254" y="387" font-family="Geist" font-size="11.5" font-weight="400" fill="#3D72A8">watches 60 sources, decides reroute or hold, hands it to the desk</text>
<text x="1786" y="387" font-family="Geist" font-size="11.5" font-weight="600" fill="#3D72A8" text-anchor="end">slide 08</text>
</g>
<path d="M1442.0 402 L1442.0 409" stroke="#0A0A0A" stroke-opacity="0.35" stroke-width="1.5" fill="none"/>
<path d="M1437.5 408 L1442.0 414 L1446.5 408" stroke="#0A0A0A" stroke-opacity="0.35" stroke-width="1.5" fill="none"/>
<g id="front-doors">
<rect x="1084" y="416" width="520" height="40" rx="10" fill="#0A0A0A"/>
<text x="1098" y="441" font-family="Geist" font-size="13.5" font-weight="600" fill="#FAFAFA">Inbox</text>
<rect x="1146" y="427" width="56" height="18" rx="9" fill="#2A2A2A"/>
<text x="1174.0" y="440" font-family="Geist" font-size="10" font-weight="600" fill="#D6D6D6" text-anchor="middle">1 agent</text>
<text x="1214" y="441" font-family="Geist" font-size="11.5" font-weight="400" fill="#D6D6D6">reads every mail, links it to the booking, hands it on</text>
<rect x="1612" y="416" width="188" height="40" rx="10" fill="#0A0A0A"/>
<text x="1626" y="441" font-family="Geist" font-size="13.5" font-weight="600" fill="#FAFAFA">Assistant</text>
<text x="1700" y="441" font-family="Geist" font-size="11.5" font-weight="400" fill="#D6D6D6">your questions</text>
</g>
<path d="M1442.0 456 L1442.0 463" stroke="#0A0A0A" stroke-opacity="0.35" stroke-width="1.5" fill="none"/>
<path d="M1437.5 462 L1442.0 468 L1446.5 462" stroke="#0A0A0A" stroke-opacity="0.35" stroke-width="1.5" fill="none"/>
<g id="the-desk">
<rect x="1084" y="470" width="716" height="234" rx="12" fill="#FAFAFA" stroke="#0A0A0A" stroke-opacity="0.10"/>
<text x="1098" y="492" font-family="Geist" font-size="10.5" font-weight="700" fill="#6B6B6B" letter-spacing="1.2">THE DESK</text>
<text x="1168" y="492" font-family="Geist" font-size="11.5" font-weight="400" fill="#6B6B6B">8 agents, in the order a shipment lives</text>
<g id="stage-quote">
<rect x="1098.0" y="506" width="224.0" height="92" rx="10" fill="#FFFFFF" stroke="#0A0A0A" stroke-opacity="0.12"/>
<text x="1112.0" y="532" font-family="Geist" font-size="11" font-weight="700" fill="#96580A" letter-spacing="0.6">01</text>
<text x="1136.0" y="532" font-family="Geist" font-size="14.5" font-weight="600" fill="#0A0A0A" letter-spacing="-0.2">Quote</text>
<text x="1112.0" y="553" font-family="Geist" font-size="11.5" font-weight="400" fill="#6B6B6B">Prices it, drafts the quote</text>
<rect x="1112.0" y="566" width="42" height="20" rx="5" fill="#EBEBEB"/>
<text x="1133.0" y="580" font-family="Geist" font-size="11" font-weight="500" fill="#3A3A3A" text-anchor="middle">Rate</text>
<rect x="1159.0" y="566" width="35" height="20" rx="5" fill="#EBEBEB"/>
<text x="1176.5" y="580" font-family="Geist" font-size="11" font-weight="500" fill="#3A3A3A" text-anchor="middle">RFQ</text>
</g>
<g id="stage-book">
<rect x="1330.0" y="506" width="224.0" height="92" rx="10" fill="#FFFFFF" stroke="#0A0A0A" stroke-opacity="0.12"/>
<text x="1344.0" y="532" font-family="Geist" font-size="11" font-weight="700" fill="#96580A" letter-spacing="0.6">02</text>
<text x="1368.0" y="532" font-family="Geist" font-size="14.5" font-weight="600" fill="#0A0A0A" letter-spacing="-0.2">Book</text>
<text x="1344.0" y="553" font-family="Geist" font-size="11.5" font-weight="400" fill="#6B6B6B">Opens the booking from the mail</text>
<rect x="1344.0" y="566" width="61" height="20" rx="5" fill="#EBEBEB"/>
<text x="1374.5" y="580" font-family="Geist" font-size="11" font-weight="500" fill="#3A3A3A" text-anchor="middle">Booking</text>
</g>
<g id="stage-documents">
<rect x="1562.0" y="506" width="224.0" height="92" rx="10" fill="#FFFFFF" stroke="#0A0A0A" stroke-opacity="0.12"/>
<text x="1576.0" y="532" font-family="Geist" font-size="11" font-weight="700" fill="#96580A" letter-spacing="0.6">03</text>
<text x="1600.0" y="532" font-family="Geist" font-size="14.5" font-weight="600" fill="#0A0A0A" letter-spacing="-0.2">Documents</text>
<text x="1576.0" y="553" font-family="Geist" font-size="11.5" font-weight="400" fill="#6B6B6B">Checks each field on the B/L</text>
<rect x="1576.0" y="566" width="42" height="20" rx="5" fill="#EBEBEB"/>
<text x="1597.0" y="580" font-family="Geist" font-size="11" font-weight="500" fill="#3A3A3A" text-anchor="middle">Docs</text>
</g>
<g id="stage-in-transit">
<rect x="1098.0" y="606" width="224.0" height="92" rx="10" fill="#FFFFFF" stroke="#0A0A0A" stroke-opacity="0.12"/>
<text x="1112.0" y="632" font-family="Geist" font-size="11" font-weight="700" fill="#96580A" letter-spacing="0.6">04</text>
<text x="1136.0" y="632" font-family="Geist" font-size="14.5" font-weight="600" fill="#0A0A0A" letter-spacing="-0.2">In transit</text>
<text x="1112.0" y="653" font-family="Geist" font-size="11.5" font-weight="400" fill="#6B6B6B">Updates the ETA, flags rollovers</text>
<rect x="1112.0" y="666" width="80" height="20" rx="5" fill="#EBEBEB"/>
<text x="1152.0" y="680" font-family="Geist" font-size="11" font-weight="500" fill="#3A3A3A" text-anchor="middle">Milestones</text>
<rect x="1197.0" y="666" width="74" height="20" rx="5" fill="#EBEBEB"/>
<text x="1234.0" y="680" font-family="Geist" font-size="11" font-weight="500" fill="#3A3A3A" text-anchor="middle">Exception</text>
</g>
<g id="stage-arrival">
<rect x="1330.0" y="606" width="224.0" height="92" rx="10" fill="#FFFFFF" stroke="#0A0A0A" stroke-opacity="0.12"/>
<text x="1344.0" y="632" font-family="Geist" font-size="11" font-weight="700" fill="#96580A" letter-spacing="0.6">05</text>
<text x="1368.0" y="632" font-family="Geist" font-size="14.5" font-weight="600" fill="#0A0A0A" letter-spacing="-0.2">Arrival</text>
<text x="1344.0" y="653" font-family="Geist" font-size="11.5" font-weight="400" fill="#6B6B6B">Prepares the entry, never files</text>
<rect x="1344.0" y="666" width="61" height="20" rx="5" fill="#EBEBEB"/>
<text x="1374.5" y="680" font-family="Geist" font-size="11" font-weight="500" fill="#3A3A3A" text-anchor="middle">Customs</text>
</g>
<g id="stage-billing">
<rect x="1562.0" y="606" width="224.0" height="92" rx="10" fill="#FFFFFF" stroke="#0A0A0A" stroke-opacity="0.12"/>
<text x="1576.0" y="632" font-family="Geist" font-size="11" font-weight="700" fill="#96580A" letter-spacing="0.6">06</text>
<text x="1600.0" y="632" font-family="Geist" font-size="14.5" font-weight="600" fill="#0A0A0A" letter-spacing="-0.2">Billing</text>
<text x="1576.0" y="653" font-family="Geist" font-size="11.5" font-weight="400" fill="#6B6B6B">Checks the bill against the rate</text>
<rect x="1576.0" y="666" width="61" height="20" rx="5" fill="#EBEBEB"/>
<text x="1606.5" y="680" font-family="Geist" font-size="11" font-weight="500" fill="#3A3A3A" text-anchor="middle">Invoice</text>
</g>
</g>
<path d="M1210.0 704 L1210.0 712" stroke="#96580A" stroke-opacity="0.6" stroke-width="1.5" fill="none"/>
<path d="M1442.0 704 L1442.0 712" stroke="#96580A" stroke-opacity="0.6" stroke-width="1.5" fill="none"/>
<path d="M1674.0 704 L1674.0 712" stroke="#96580A" stroke-opacity="0.6" stroke-width="1.5" fill="none"/>
<g id="playbook">
<rect x="1084" y="712" width="716" height="36" rx="10" fill="#F6EEE3"/>
<text x="1098" y="735" font-family="Geist" font-size="13.5" font-weight="600" fill="#96580A">Playbook</text>
<rect x="1170" y="721" width="56" height="18" rx="9" fill="#FFFFFF"/>
<text x="1198.0" y="734" font-family="Geist" font-size="10" font-weight="600" fill="#96580A" text-anchor="middle">1 agent</text>
<text x="1238" y="735" font-family="Geist" font-size="11.5" font-weight="400" fill="#96580A">checks every output against the customer's rules, sends back what breaks them</text>
</g>
<path d="M1442.0 748 L1442.0 755" stroke="#0A0A0A" stroke-opacity="0.35" stroke-width="1.5" fill="none"/>
<path d="M1437.5 754 L1442.0 760 L1446.5 754" stroke="#0A0A0A" stroke-opacity="0.35" stroke-width="1.5" fill="none"/>
<g id="gate-and-record">
<rect x="1084" y="762" width="344.0" height="40" rx="10" fill="#FFFFFF" stroke="#0A0A0A" stroke-opacity="0.55" stroke-width="1.5"/>
<text x="1098" y="787" font-family="Geist" font-size="13.5" font-weight="700" fill="#0A0A0A">You approve</text>
<text x="1192" y="787" font-family="Geist" font-size="11.5" font-weight="400" fill="#6B6B6B">every draft, every change</text>
<path d="M1432.0 782 L1447.0 782" stroke="#0A0A0A" stroke-opacity="0.35" stroke-width="1.5" fill="none"/>
<path d="M1446.0 777.5 L1452.0 782 L1446.0 786.5" stroke="#0A0A0A" stroke-opacity="0.35" stroke-width="1.5" fill="none"/>
<rect x="1456.0" y="762" width="344.0" height="40" rx="10" fill="#0A0A0A"/>
<text x="1470.0" y="787" font-family="Geist" font-size="13.5" font-weight="600" fill="#FAFAFA">TMS link</text>
<text x="1542.0" y="787" font-family="Geist" font-size="11.5" font-weight="400" fill="#D6D6D6">writes it onto the booking</text>
<rect x="1740.0" y="773" width="38" height="18" rx="9" fill="#2A2A2A"/>
<text x="1759.0" y="786" font-family="Geist" font-size="10" font-weight="600" fill="#D6D6D6" text-anchor="middle">demo</text>
</g>
<g id="worked-together">
<text x="1084" y="830" font-family="Geist" font-size="10.5" font-weight="700" fill="#6B6B6B" letter-spacing="1.2">ONE MAIL, TOGETHER</text>
<text x="1234" y="830" font-family="Geist" font-size="11.5" font-weight="400" fill="#6B6B6B">IN-108, a vaccine booking</text>
<rect x="1084" y="842" width="50" height="22" rx="5" fill="#EBEBEB"/>
<text x="1109.0" y="857" font-family="Geist" font-size="11" font-weight="500" fill="#3A3A3A" text-anchor="middle">Inbox</text>
<text x="1139" y="857" font-family="Geist" font-size="12" font-weight="500" fill="#6B6B6B">›</text>
<rect x="1150" y="842" width="62" height="22" rx="5" fill="#EBEBEB"/>
<text x="1181.0" y="857" font-family="Geist" font-size="11" font-weight="500" fill="#3A3A3A" text-anchor="middle">Booking</text>
<text x="1217" y="857" font-family="Geist" font-size="12" font-weight="500" fill="#6B6B6B">›</text>
<rect x="1228" y="842" width="43" height="22" rx="5" fill="#EBEBEB"/>
<text x="1249.5" y="857" font-family="Geist" font-size="11" font-weight="500" fill="#3A3A3A" text-anchor="middle">Docs</text>
<text x="1276" y="857" font-family="Geist" font-size="12" font-weight="500" fill="#6B6B6B">›</text>
<rect x="1287" y="842" width="43" height="22" rx="5" fill="#EBEBEB"/>
<text x="1308.5" y="857" font-family="Geist" font-size="11" font-weight="500" fill="#3A3A3A" text-anchor="middle">Rate</text>
<text x="1335" y="857" font-family="Geist" font-size="12" font-weight="500" fill="#6B6B6B">›</text>
<rect x="1346" y="842" width="157" height="22" rx="5" fill="#96580A"/>
<text x="1424.5" y="857" font-family="Geist" font-size="11" font-weight="600" fill="#FFFFFF" text-anchor="middle">Playbook sends it back</text>
<text x="1508" y="857" font-family="Geist" font-size="12" font-weight="500" fill="#6B6B6B">›</text>
<rect x="1519" y="842" width="112" height="22" rx="5" fill="#EBEBEB"/>
<text x="1575.0" y="857" font-family="Geist" font-size="11" font-weight="500" fill="#3A3A3A" text-anchor="middle">Booking rebooks</text>
<text x="1636" y="857" font-family="Geist" font-size="12" font-weight="500" fill="#6B6B6B">›</text>
<rect x="1647" y="842" width="87" height="22" rx="5" fill="#0A0A0A"/>
<text x="1690.5" y="857" font-family="Geist" font-size="11" font-weight="600" fill="#FFFFFF" text-anchor="middle">You approve</text>
</g>
</g>
<text x="96" y="946" font-family="Geist" font-size="28" font-weight="600" fill="#0A0A0A" letter-spacing="-0.6">Every step recorded, checked against the customer's rules, and approved by you.</text>
<g id="footer">
<rect x="96" y="978" width="1728" height="1" fill="#0A0A0A" fill-opacity="0.12"/>
<rect x="96" y="1004" width="22" height="22" rx="6" fill="#0A0A0A"/>
<path d="M101.5 1020h11 M101.5 1015h7.5 M101.5 1010h4" stroke="#FAFAFA" stroke-width="1.8" stroke-linecap="round" fill="none"/>
<text x="130" y="1021" font-family="Geist" font-size="16" font-weight="600" fill="#0A0A0A">sqrlane</text>
<text x="200" y="1021" font-family="Geist" font-size="14" font-weight="400" fill="#6B6B6B">Automates the desk. Acts before the route breaks.</text>
<text x="1824" y="1021" font-family="Geist" font-size="12.5" font-weight="500" fill="#6B6B6B" text-anchor="end" letter-spacing="1.2">SLIDE 07</text>
</g>
</svg>